<?xml version="1.0" encoding="UTF-8"?>
<svg xmlns="http://www.w3.org/2000/svg" xmlns:xlink="http://www.w3.org/1999/xlink" width="386pt" height="269pt" viewBox="0 0 386 269" version="1.1">
<g id="surface1">
<rect x="0" y="0" width="386" height="269" style="fill:rgb(100%,100%,100%);fill-opacity:1;stroke:none;"/>
<path style=" stroke:none;fill-rule:nonzero;fill:rgb(0%,38.398743%,65.098572%);fill-opacity:1;" d="M 160.410156 60.652344 C 161.257813 59.738281 163.054688 58.34375 165.804688 56.457031 L 165.457031 55.0625 C 165.179688 53.945313 164.878906 53.195313 164.550781 52.8125 C 163.992188 52.167969 163.128906 51.992188 161.949219 52.285156 C 161.386719 52.425781 160.890625 52.699219 160.453125 53.109375 C 160.019531 53.53125 159.867188 54 159.996094 54.515625 C 160.027344 54.648438 160.113281 54.863281 160.257813 55.160156 C 160.394531 55.460938 160.476563 55.652344 160.496094 55.738281 C 160.648438 56.355469 160.550781 56.832031 160.203125 57.175781 C 160.007813 57.375 159.75 57.515625 159.429688 57.59375 C 158.933594 57.714844 158.515625 57.648438 158.171875 57.390625 C 157.824219 57.128906 157.605469 56.800781 157.507813 56.40625 C 157.316406 55.636719 157.589844 54.710938 158.332031 53.632813 C 159.074219 52.558594 160.363281 51.789063 162.195313 51.335938 C 164.328125 50.808594 165.945313 51.144531 167.046875 52.339844 C 167.640625 53 168.117188 54.054688 168.476563 55.507813 L 170.117188 62.121094 C 170.273438 62.761719 170.425781 63.191406 170.574219 63.410156 C 170.832031 63.839844 171.1875 64 171.640625 63.886719 C 171.890625 63.824219 172.089844 63.734375 172.234375 63.609375 C 172.378906 63.484375 172.613281 63.210938 172.941406 62.789063 L 173.167969 63.695313 C 172.917969 64.199219 172.625 64.636719 172.28125 65.007813 C 171.765625 65.566406 171.191406 65.921875 170.550781 66.082031 C 169.800781 66.265625 169.199219 66.160156 168.742188 65.757813 C 168.285156 65.355469 167.960938 64.820313 167.761719 64.160156 C 167.105469 65.09375 166.523438 65.808594 166.015625 66.308594 C 165.160156 67.152344 164.28125 67.683594 163.378906 67.90625 C 162.433594 68.140625 161.53125 68.011719 160.671875 67.515625 C 159.8125 67.023438 159.257813 66.265625 159.003906 65.238281 C 158.609375 63.644531 159.078125 62.113281 160.410156 60.652344 M 166.011719 57.296875 C 164.847656 58.027344 163.910156 58.75 163.210938 59.460938 C 161.863281 60.832031 161.34375 62.140625 161.648438 63.378906 C 161.898438 64.378906 162.410156 65.035156 163.191406 65.34375 C 163.695313 65.546875 164.214844 65.578125 164.746094 65.449219 C 165.472656 65.269531 166.121094 64.890625 166.6875 64.320313 C 167.253906 63.746094 167.460938 63.148438 167.304688 62.523438 "/>
<path style=" stroke:none;fill-rule:nonzero;fill:rgb(0%,38.398743%,65.098572%);fill-opacity:1;" d="M 176.429688 57.292969 C 177.398438 56.507813 179.375 55.375 182.355469 53.894531 L 182.207031 52.460938 C 182.089844 51.316406 181.894531 50.53125 181.621094 50.105469 C 181.160156 49.390625 180.328125 49.097656 179.121094 49.222656 C 178.546875 49.28125 178.015625 49.484375 177.527344 49.832031 C 177.039063 50.1875 176.824219 50.632813 176.878906 51.160156 C 176.890625 51.292969 176.945313 51.519531 177.042969 51.832031 C 177.140625 52.144531 177.191406 52.347656 177.203125 52.4375 C 177.269531 53.070313 177.105469 53.53125 176.710938 53.820313 C 176.488281 53.992188 176.214844 54.09375 175.886719 54.125 C 175.378906 54.179688 174.972656 54.054688 174.667969 53.75 C 174.363281 53.445313 174.191406 53.085938 174.148438 52.683594 C 174.066406 51.894531 174.46875 51.015625 175.351563 50.054688 C 176.238281 49.089844 177.617188 48.511719 179.5 48.316406 C 181.683594 48.09375 183.238281 48.648438 184.160156 49.988281 C 184.65625 50.722656 184.984375 51.835938 185.136719 53.324219 L 185.835938 60.101563 C 185.902344 60.757813 185.996094 61.203125 186.113281 61.441406 C 186.308594 61.902344 186.636719 62.109375 187.097656 62.0625 C 187.359375 62.035156 187.566406 61.972656 187.730469 61.867188 C 187.886719 61.765625 188.160156 61.527344 188.542969 61.15625 L 188.640625 62.085938 C 188.320313 62.550781 187.96875 62.941406 187.578125 63.257813 C 186.992188 63.742188 186.367188 64.015625 185.714844 64.082031 C 184.949219 64.160156 184.367188 63.972656 183.972656 63.511719 C 183.574219 63.050781 183.324219 62.476563 183.21875 61.789063 C 182.441406 62.621094 181.765625 63.25 181.191406 63.675781 C 180.230469 64.390625 179.285156 64.792969 178.359375 64.890625 C 177.390625 64.988281 176.515625 64.738281 175.734375 64.128906 C 174.953125 63.519531 174.507813 62.6875 174.398438 61.640625 C 174.230469 60.003906 174.90625 58.554688 176.429688 57.292969 M 182.445313 54.75 C 181.1875 55.3125 180.164063 55.894531 179.367188 56.5 C 177.84375 57.671875 177.148438 58.894531 177.277344 60.167969 C 177.382813 61.191406 177.800781 61.910156 178.53125 62.324219 C 179.003906 62.59375 179.511719 62.703125 180.054688 62.644531 C 180.800781 62.570313 181.492188 62.285156 182.136719 61.800781 C 182.777344 61.3125 183.066406 60.746094 182.996094 60.105469 "/>
<path style=" stroke:none;fill-rule:nonzero;fill:rgb(0%,38.398743%,65.098572%);fill-opacity:1;" d="M 189.085938 62.597656 C 189.96875 62.59375 190.566406 62.5 190.878906 62.308594 C 191.355469 62.023438 191.636719 61.394531 191.71875 60.421875 L 192.460938 51.691406 C 192.535156 50.847656 192.472656 50.28125 192.269531 50 C 192.070313 49.71875 191.71875 49.554688 191.207031 49.511719 C 190.96875 49.492188 190.789063 49.488281 190.667969 49.5 C 190.546875 49.511719 190.402344 49.539063 190.238281 49.582031 L 190.289063 49.011719 L 191.558594 48.691406 C 192.015625 48.574219 192.769531 48.359375 193.816406 48.042969 C 194.867188 47.730469 195.421875 47.574219 195.476563 47.578125 C 195.535156 47.582031 195.5625 47.613281 195.570313 47.671875 C 195.578125 47.730469 195.574219 47.835938 195.5625 47.996094 L 195.367188 50.285156 C 196.5625 49.363281 197.585938 48.742188 198.425781 48.417969 C 199.265625 48.097656 200.113281 47.972656 200.96875 48.046875 C 202.121094 48.144531 203.011719 48.617188 203.628906 49.46875 C 203.949219 49.929688 204.199219 50.535156 204.371094 51.289063 C 205.277344 50.515625 206.058594 49.949219 206.714844 49.59375 C 207.84375 48.984375 208.96875 48.726563 210.082031 48.820313 C 211.898438 48.976563 213.046875 49.820313 213.527344 51.355469 C 213.808594 52.226563 213.871094 53.566406 213.714844 55.378906 L 213.117188 62.429688 C 213.046875 63.230469 213.179688 63.789063 213.515625 64.105469 C 213.851563 64.425781 214.480469 64.667969 215.410156 64.835938 L 215.367188 65.3125 L 207.738281 64.664063 L 207.78125 64.1875 C 208.761719 64.179688 209.417969 64.035156 209.753906 63.753906 C 210.085938 63.472656 210.292969 62.855469 210.371094 61.910156 L 210.996094 54.578125 C 211.089844 53.480469 211.042969 52.65625 210.847656 52.117188 C 210.511719 51.148438 209.730469 50.617188 208.511719 50.511719 C 207.78125 50.449219 207.03125 50.632813 206.269531 51.058594 C 205.824219 51.308594 205.273438 51.71875 204.609375 52.289063 L 203.867188 61.019531 C 203.792969 61.925781 203.894531 62.625 204.179688 63.121094 C 204.460938 63.617188 205.121094 63.929688 206.15625 64.050781 L 206.117188 64.527344 L 198.34375 63.867188 L 198.382813 63.390625 C 199.464844 63.347656 200.164063 63.152344 200.488281 62.804688 C 200.8125 62.453125 201.039063 61.527344 201.167969 60.023438 L 201.574219 55.246094 C 201.722656 53.492188 201.714844 52.28125 201.546875 51.601563 C 201.273438 50.457031 200.535156 49.835938 199.339844 49.734375 C 198.660156 49.675781 197.972656 49.808594 197.28125 50.132813 C 196.589844 50.457031 195.964844 50.902344 195.410156 51.472656 L 194.613281 60.859375 C 194.542969 61.683594 194.644531 62.261719 194.910156 62.601563 C 195.183594 62.941406 195.8125 63.160156 196.8125 63.253906 L 196.769531 63.730469 L 189.046875 63.074219 "/>
<path style=" stroke:none;fill-rule:nonzero;fill:rgb(0%,38.398743%,65.098572%);fill-opacity:1;" d="M 218.125 61.15625 L 218.65625 61.300781 C 218.5625 62.617188 218.640625 63.667969 218.882813 64.449219 C 219.308594 65.882813 220.257813 66.796875 221.726563 67.199219 C 222.539063 67.421875 223.246094 67.367188 223.84375 67.046875 C 224.4375 66.71875 224.835938 66.195313 225.035156 65.476563 C 225.160156 65.015625 225.144531 64.535156 224.988281 64.035156 C 224.835938 63.535156 224.472656 62.988281 223.898438 62.398438 L 222.363281 60.851563 C 221.226563 59.769531 220.4375 58.773438 220 57.863281 C 219.5625 56.957031 219.480469 56.003906 219.753906 55.007813 C 220.085938 53.78125 220.796875 52.890625 221.890625 52.34375 C 222.980469 51.792969 224.1875 51.695313 225.511719 52.058594 C 226.09375 52.21875 226.699219 52.5 227.339844 52.902344 C 227.972656 53.308594 228.335938 53.523438 228.425781 53.546875 C 228.621094 53.601563 228.769531 53.613281 228.871094 53.585938 C 228.972656 53.558594 229.070313 53.496094 229.167969 53.402344 L 229.585938 53.515625 L 228.429688 58.113281 L 227.96875 57.988281 C 228.035156 56.867188 227.964844 55.964844 227.75 55.269531 C 227.367188 53.992188 226.527344 53.179688 225.242188 52.828125 C 224.46875 52.617188 223.800781 52.6875 223.230469 53.039063 C 222.664063 53.386719 222.289063 53.878906 222.121094 54.515625 C 221.84375 55.519531 222.351563 56.621094 223.640625 57.820313 L 225.480469 59.570313 C 227.457031 61.472656 228.214844 63.265625 227.753906 64.953125 C 227.402344 66.246094 226.632813 67.171875 225.449219 67.734375 C 224.261719 68.292969 222.894531 68.359375 221.339844 67.9375 C 220.6875 67.757813 219.980469 67.449219 219.214844 67.011719 C 218.445313 66.570313 217.988281 66.328125 217.835938 66.285156 C 217.703125 66.25 217.578125 66.265625 217.453125 66.328125 C 217.332031 66.390625 217.226563 66.480469 217.140625 66.59375 L 216.679688 66.46875 "/>
<path style=" stroke:none;fill-rule:nonzero;fill:rgb(0%,56.498718%,21.199036%);fill-opacity:1;" d="M 155.535156 99.796875 C 124.636719 114.171875 103.15625 145.875 103.15625 182.046875 L 82.273438 182.046875 C 82.273438 137.164063 109.082031 98.398438 147.558594 81.105469 "/>
<path style=" stroke:none;fill-rule:nonzero;fill:rgb(88.598633%,0%,9.799194%);fill-opacity:1;" d="M 237.304688 80.996094 C 275.917969 98.234375 302.84375 137.082031 302.84375 182.058594 L 281.960938 182.136719 C 281.960938 146.132813 260.679688 114.503906 230.007813 100.015625 "/>
<path style=" stroke:none;fill-rule:nonzero;fill:rgb(100%,100%,100%);fill-opacity:1;" d="M 150.699219 79.75 C 163.605469 74.429688 177.742188 71.488281 192.558594 71.488281 C 207.082031 71.488281 220.953125 74.3125 233.652344 79.441406 L 225.527344 98.046875 C 215.324219 93.902344 204.203125 91.613281 192.558594 91.613281 C 180.617188 91.613281 169.222656 94.015625 158.808594 98.355469 "/>
<path style="fill:none;stroke-width:26.8;stroke-linecap:butt;stroke-linejoin:miter;stroke:rgb(0%,38.398743%,65.098572%);stroke-opacity:1;stroke-miterlimit:4;" d="M 2819.609375 868.632813 C 2819.609375 1362.421875 2419.335938 1773.867188 1925.585938 1773.867188 C 1431.835938 1773.867188 1031.5625 1363.28125 1031.5625 869.53125 L 822.734375 869.53125 C 822.734375 1478.632813 1316.484375 1975.117188 1925.585938 1975.117188 C 2534.6875 1975.117188 3028.4375 1478.515625 3028.4375 869.414063 Z M 2819.609375 868.632813 " transform="matrix(0.1,0,0,-0.1,0,269)"/>
<path style=" stroke:none;fill-rule:nonzero;fill:rgb(0%,38.398743%,65.098572%);fill-opacity:1;" d="M 171.109375 182.253906 C 171.109375 170.570313 180.578125 161.101563 192.261719 161.101563 C 203.945313 161.101563 213.417969 170.570313 213.417969 182.253906 "/>
<path style=" stroke:none;fill-rule:nonzero;fill:rgb(0%,38.398743%,65.098572%);fill-opacity:1;" d="M 191.101563 163.285156 C 191.996094 165.363281 190.039063 168.207031 187.960938 169.101563 C 185.878906 170 182.46875 169.46875 181.574219 167.386719 L 138.558594 64.773438 C 137.660156 62.695313 138.621094 60.28125 140.703125 59.386719 C 142.78125 58.488281 145.195313 59.449219 146.09375 61.53125 "/>
<path style=" stroke:none;fill-rule:nonzero;fill:rgb(0%,38.398743%,65.098572%);fill-opacity:1;" d="M 179.40625 169.464844 C 181.484375 170.367188 182.003906 173.78125 181.097656 175.855469 C 180.195313 177.933594 177.34375 179.878906 175.265625 178.976563 L 73.683594 133.582031 C 71.609375 132.675781 70.65625 130.257813 71.5625 128.183594 C 72.464844 126.105469 74.882813 125.15625 76.960938 126.058594 "/>
<path style=" stroke:none;fill-rule:nonzero;fill:rgb(0%,38.398743%,65.098572%);fill-opacity:1;" d="M 206.683594 169.464844 C 204.605469 170.367188 204.089844 173.78125 204.992188 175.855469 C 205.894531 177.933594 208.746094 179.878906 210.824219 178.976563 L 312.40625 133.582031 C 314.480469 132.675781 315.433594 130.257813 314.527344 128.183594 C 313.625 126.105469 311.207031 125.15625 309.132813 126.058594 "/>
<path style=" stroke:none;fill-rule:nonzero;fill:rgb(0%,38.398743%,65.098572%);fill-opacity:1;" d="M 194.304688 163.285156 C 193.40625 165.363281 195.363281 168.207031 197.445313 169.101563 C 199.523438 170 202.933594 169.46875 203.832031 167.386719 L 246.847656 64.773438 C 247.742188 62.695313 246.78125 60.28125 244.703125 59.386719 C 242.621094 58.488281 240.210938 59.449219 239.3125 61.53125 "/>
<path style=" stroke:none;fill-rule:nonzero;fill:rgb(0%,38.398743%,65.098572%);fill-opacity:1;" d="M 44.1875 204.742188 C 44.1875 206.71875 45.113281 208.789063 47.242188 208.789063 C 47.707031 208.789063 48.292969 208.632813 48.664063 208.230469 C 49.160156 207.738281 49.5 206.78125 49.5 205.542969 C 49.5 203.691406 48.726563 201.652344 46.441406 201.652344 C 45.050781 201.652344 44.1875 202.886719 44.1875 204.742188 M 51.722656 216.789063 C 51.722656 215.644531 51.105469 214.964844 50.148438 214.59375 C 49.25 214.222656 47.613281 214.070313 46.347656 214.070313 C 45.886719 214.070313 45.515625 214.222656 45.234375 214.378906 C 44.0625 215.152344 43.539063 215.921875 43.539063 216.789063 C 43.539063 217.558594 43.847656 218.269531 44.554688 218.886719 C 45.421875 219.597656 46.535156 219.875 47.738281 219.875 C 50.609375 219.875 51.722656 218.300781 51.722656 216.789063 M 50.179688 201.097656 C 50.671875 201.28125 51.257813 201.40625 51.9375 201.40625 C 53.050781 201.40625 53.390625 201.160156 53.792969 200.726563 C 53.886719 200.695313 54.164063 200.878906 54.195313 200.941406 C 54.195313 201.3125 53.761719 202.332031 53.421875 202.671875 C 53.207031 202.886719 52.957031 203.042969 52.339844 203.042969 C 52 203.042969 51.9375 203.042969 51.597656 203.011719 C 51.570313 203.011719 51.507813 203.105469 51.539063 203.164063 C 51.628906 203.445313 51.785156 204.125 51.785156 204.675781 C 51.785156 206.8125 50.980469 207.890625 49.960938 208.695313 C 48.757813 209.589844 47.550781 209.867188 46.6875 209.960938 C 46.59375 209.960938 46.195313 209.992188 46.101563 210.023438 C 45.824219 210.054688 45.296875 210.332031 45.296875 210.828125 C 45.296875 211.414063 45.886719 211.691406 46.535156 211.753906 C 47.921875 211.875 50.609375 212 51.628906 212.371094 C 52.773438 212.773438 53.792969 213.730469 53.792969 215.398438 C 53.792969 217.46875 52.339844 219.414063 50.023438 220.554688 C 48.757813 221.203125 47.613281 221.421875 46.503906 221.421875 C 45.019531 221.421875 43.816406 221.082031 42.796875 220.308594 C 41.839844 219.535156 41.3125 218.425781 41.3125 217.4375 C 41.3125 217.160156 41.40625 216.449219 41.53125 216.261719 C 41.902344 215.800781 43.199219 214.8125 44.527344 213.851563 C 44.527344 213.851563 44.527344 213.761719 44.496094 213.761719 C 43.289063 213.359375 42.640625 212.492188 42.546875 211.84375 C 42.546875 211.722656 42.640625 211.414063 42.671875 211.320313 C 43.136719 211.042969 44.28125 210.363281 44.710938 210.023438 C 44.773438 209.960938 44.742188 209.867188 44.679688 209.835938 C 43.105469 209.28125 41.839844 207.953125 41.839844 205.453125 C 41.839844 204.125 42.363281 202.796875 43.570313 201.867188 C 44.433594 201.1875 46.285156 200.476563 47.429688 200.507813 C 48.511719 200.507813 49.28125 200.757813 50.179688 201.097656 "/>
<path style=" stroke:none;fill-rule:nonzero;fill:rgb(0%,38.398743%,65.098572%);fill-opacity:1;" d="M 58.765625 197.605469 C 58.609375 197.699219 57.5625 197.792969 57.375 197.667969 C 56.910156 197.453125 56.664063 197.019531 56.574219 196.402344 C 56.542969 196.214844 56.574219 195.660156 56.726563 195.503906 C 57.003906 195.257813 57.65625 194.949219 58.210938 194.949219 C 58.703125 194.949219 59.042969 195.105469 59.105469 195.195313 C 59.289063 195.414063 59.414063 195.8125 59.414063 196.09375 C 59.414063 196.679688 59.167969 197.296875 58.765625 197.605469 M 61.144531 213.234375 C 60.558594 213.234375 59.570313 213.144531 57.992188 213.144531 C 56.695313 213.144531 55.492188 213.234375 54.964844 213.234375 C 54.84375 213.144531 54.84375 212.464844 54.964844 212.339844 C 55.492188 212.277344 55.921875 212.183594 56.292969 212.0625 C 56.695313 211.90625 56.789063 211.660156 56.851563 210.949219 C 56.910156 210.175781 56.910156 208.140625 56.910156 206.441406 C 56.910156 205.234375 56.882813 204.125 56.882813 203.503906 C 56.882813 203.320313 56.851563 203.074219 56.664063 202.855469 C 56.328125 202.515625 55.800781 202.332031 55.183594 202.117188 C 55.089844 201.992188 55.183594 201.46875 55.304688 201.375 C 56.234375 201.34375 58.117188 200.972656 59.324219 200.476563 C 59.324219 201.867188 59.289063 204 59.289063 205.882813 C 59.289063 207.582031 59.289063 209.652344 59.324219 211.042969 C 59.324219 211.597656 59.507813 211.9375 59.96875 212.09375 C 60.371094 212.183594 60.558594 212.246094 61.265625 212.339844 C 61.359375 212.492188 61.265625 213.144531 61.144531 213.234375 "/>
<path style=" stroke:none;fill-rule:nonzero;fill:rgb(0%,38.398743%,65.098572%);fill-opacity:1;" d="M 67.199219 202.148438 C 66.394531 202.667969 65.625 203.785156 65.625 206.132813 C 65.625 209.777344 67.445313 212.246094 69.917969 212.246094 C 70.566406 212.246094 71.277344 212.09375 71.800781 211.597656 C 72.636719 210.828125 72.976563 209.589844 72.976563 207.707031 C 72.976563 204.125 71.308594 201.714844 68.679688 201.714844 C 68.1875 201.714844 67.601563 201.867188 67.199219 202.148438 M 75.601563 206.71875 C 75.601563 209.097656 74.640625 211.164063 72.726563 212.371094 C 71.894531 212.925781 70.441406 213.511719 69.144531 213.511719 C 64.636719 213.511719 62.996094 210.085938 62.996094 206.902344 C 62.996094 204.464844 64.109375 202.824219 65.683594 201.746094 C 66.796875 201.035156 68.28125 200.507813 69.730469 200.507813 C 73.4375 200.507813 75.601563 203.257813 75.601563 206.71875 "/>
<path style=" stroke:none;fill-rule:nonzero;fill:rgb(0%,38.398743%,65.098572%);fill-opacity:1;" d="M 83.816406 213.511719 C 81.839844 213.511719 80.417969 212.773438 79.398438 211.382813 C 78.628906 210.269531 78.195313 208.789063 78.195313 207.242188 C 78.195313 204.957031 79.246094 203.011719 81.316406 201.777344 C 82.613281 200.972656 84.28125 200.507813 85.238281 200.507813 C 86.472656 200.507813 87.183594 200.726563 87.769531 200.972656 C 88.171875 201.1875 88.574219 201.46875 88.699219 201.777344 C 88.699219 201.867188 88.667969 202.148438 88.636719 202.269531 C 88.453125 202.734375 87.863281 203.414063 87.585938 203.535156 C 87.523438 203.566406 87.339844 203.566406 87.277344 203.535156 C 86.628906 202.886719 85.457031 201.898438 83.878906 201.898438 C 81.5625 201.898438 80.574219 203.96875 80.574219 206.070313 C 80.574219 207.519531 80.945313 208.941406 81.714844 209.867188 C 82.644531 211.011719 83.785156 211.476563 85.207031 211.476563 C 86.289063 211.476563 87.554688 211.074219 88.726563 209.992188 C 88.757813 209.992188 88.882813 210.085938 88.882813 210.175781 C 88.882813 210.425781 88.789063 210.980469 88.726563 211.074219 C 87.214844 212.925781 85.113281 213.511719 83.816406 213.511719 "/>
<path style=" stroke:none;fill-rule:nonzero;fill:rgb(0%,38.398743%,65.098572%);fill-opacity:1;" d="M 94.722656 202.148438 C 93.917969 202.667969 93.148438 203.785156 93.148438 206.132813 C 93.148438 209.777344 94.96875 212.246094 97.441406 212.246094 C 98.089844 212.246094 98.800781 212.09375 99.324219 211.597656 C 100.15625 210.828125 100.496094 209.589844 100.496094 207.707031 C 100.496094 204.125 98.828125 201.714844 96.203125 201.714844 C 95.710938 201.714844 95.125 201.867188 94.722656 202.148438 M 103.121094 206.71875 C 103.121094 209.097656 102.164063 211.164063 100.25 212.371094 C 99.417969 212.925781 97.964844 213.511719 96.667969 213.511719 C 92.15625 213.511719 90.523438 210.085938 90.523438 206.902344 C 90.523438 204.464844 91.632813 202.824219 93.207031 201.746094 C 94.320313 201.035156 95.804688 200.507813 97.253906 200.507813 C 100.960938 200.507813 103.121094 203.257813 103.121094 206.71875 "/>
<path style=" stroke:none;fill-rule:nonzero;fill:rgb(0%,38.398743%,65.098572%);fill-opacity:1;" d="M 110.722656 212.339844 C 111.308594 212.246094 111.710938 212.183594 112.082031 212.03125 C 112.421875 211.875 112.542969 211.597656 112.574219 211.164063 C 112.667969 210.175781 112.699219 208.046875 112.699219 203.011719 C 112.699219 200.820313 112.699219 196.277344 112.605469 195.351563 C 112.574219 195.011719 112.542969 194.484375 112.144531 194.394531 C 111.835938 194.300781 111.277344 194.207031 110.535156 194.117188 C 110.414063 194.023438 110.445313 193.4375 110.566406 193.34375 C 112.082031 193.21875 113.996094 192.695313 115.109375 192.199219 C 115.199219 192.230469 115.324219 192.417969 115.324219 192.480469 C 115.140625 193.035156 115.046875 193.652344 115.046875 195.164063 C 115.015625 196.742188 115.015625 200.230469 115.015625 202.886719 C 115.015625 207.734375 115.046875 209.835938 115.109375 210.671875 C 115.140625 211.503906 115.230469 211.875 115.789063 212.0625 C 116.160156 212.214844 116.40625 212.277344 117.085938 212.339844 C 117.148438 212.492188 117.085938 213.082031 116.960938 213.234375 C 116.40625 213.234375 115.417969 213.144531 113.78125 213.144531 C 112.574219 213.144531 111.121094 213.234375 110.722656 213.234375 C 110.660156 213.082031 110.597656 212.523438 110.722656 212.339844 "/>
<path style=" stroke:none;fill-rule:nonzero;fill:rgb(0%,38.398743%,65.098572%);fill-opacity:1;" d="M 121.101563 205.234375 C 121.101563 205.296875 121.164063 205.453125 121.253906 205.453125 C 122.242188 205.511719 125.890625 205.390625 126.507813 205.265625 C 126.570313 205.203125 126.660156 205.113281 126.660156 204.988281 C 126.507813 203.445313 125.488281 201.683594 123.820313 201.683594 C 122.335938 201.683594 121.253906 203.042969 121.101563 205.234375 M 129.316406 210.363281 C 129.347656 210.578125 129.226563 211.105469 129.164063 211.195313 C 127.804688 212.742188 125.671875 213.511719 124.25 213.511719 C 122.644531 213.511719 121.410156 212.988281 120.484375 212.03125 C 119.21875 210.765625 118.722656 208.878906 118.722656 207.121094 C 118.722656 204.402344 119.867188 202.578125 121.441406 201.527344 C 122.398438 200.910156 123.789063 200.507813 124.777344 200.507813 C 127.773438 200.507813 128.855469 203.164063 129.101563 204.894531 C 129.132813 205.019531 129.253906 205.144531 129.566406 205.234375 C 129.59375 205.359375 129.410156 205.882813 129.316406 205.945313 C 128.019531 206.316406 123.820313 206.5625 121.226563 206.625 C 121.101563 206.65625 121.039063 206.8125 121.039063 206.964844 C 121.101563 208.015625 121.566406 209.3125 122.304688 210.117188 C 123.230469 211.074219 124.28125 211.476563 125.671875 211.476563 C 126.90625 211.476563 128.050781 211.105469 129.195313 210.175781 C 129.226563 210.207031 129.285156 210.269531 129.316406 210.363281 "/>
<path style=" stroke:none;fill-rule:nonzero;fill:rgb(0%,38.398743%,65.098572%);fill-opacity:1;" d="M 133.828125 204.742188 C 133.828125 206.71875 134.753906 208.789063 136.886719 208.789063 C 137.351563 208.789063 137.9375 208.632813 138.308594 208.230469 C 138.800781 207.738281 139.140625 206.78125 139.140625 205.542969 C 139.140625 203.691406 138.367188 201.652344 136.085938 201.652344 C 134.691406 201.652344 133.828125 202.886719 133.828125 204.742188 M 141.363281 216.789063 C 141.363281 215.644531 140.746094 214.964844 139.789063 214.59375 C 138.894531 214.222656 137.257813 214.070313 135.992188 214.070313 C 135.527344 214.070313 135.15625 214.222656 134.878906 214.378906 C 133.703125 215.152344 133.179688 215.921875 133.179688 216.789063 C 133.179688 217.558594 133.488281 218.269531 134.199219 218.886719 C 135.0625 219.597656 136.175781 219.875 137.382813 219.875 C 140.253906 219.875 141.363281 218.300781 141.363281 216.789063 M 139.820313 201.097656 C 140.316406 201.28125 140.902344 201.40625 141.582031 201.40625 C 142.691406 201.40625 143.03125 201.160156 143.433594 200.726563 C 143.527344 200.695313 143.804688 200.878906 143.835938 200.941406 C 143.835938 201.3125 143.402344 202.332031 143.0625 202.671875 C 142.847656 202.886719 142.601563 203.042969 141.984375 203.042969 C 141.644531 203.042969 141.582031 203.042969 141.242188 203.011719 C 141.210938 203.011719 141.148438 203.105469 141.179688 203.164063 C 141.273438 203.445313 141.425781 204.125 141.425781 204.675781 C 141.425781 206.8125 140.625 207.890625 139.605469 208.695313 C 138.398438 209.589844 137.195313 209.867188 136.332031 209.960938 C 136.238281 209.960938 135.835938 209.992188 135.742188 210.023438 C 135.464844 210.054688 134.941406 210.332031 134.941406 210.828125 C 134.941406 211.414063 135.527344 211.691406 136.175781 211.753906 C 137.566406 211.875 140.253906 212 141.273438 212.371094 C 142.414063 212.773438 143.433594 213.730469 143.433594 215.398438 C 143.433594 217.46875 141.984375 219.414063 139.667969 220.554688 C 138.398438 221.203125 137.257813 221.421875 136.144531 221.421875 C 134.664063 221.421875 133.457031 221.082031 132.4375 220.308594 C 131.480469 219.535156 130.957031 218.425781 130.957031 217.4375 C 130.957031 217.160156 131.050781 216.449219 131.171875 216.261719 C 131.542969 215.800781 132.839844 214.8125 134.167969 213.851563 C 134.167969 213.851563 134.167969 213.761719 134.136719 213.761719 C 132.933594 213.359375 132.285156 212.492188 132.191406 211.84375 C 132.191406 211.722656 132.285156 211.414063 132.316406 211.320313 C 132.777344 211.042969 133.921875 210.363281 134.351563 210.023438 C 134.414063 209.960938 134.386719 209.867188 134.324219 209.835938 C 132.746094 209.28125 131.480469 207.953125 131.480469 205.453125 C 131.480469 204.125 132.007813 202.796875 133.210938 201.867188 C 134.074219 201.1875 135.929688 200.476563 137.070313 200.507813 C 138.152344 200.507813 138.925781 200.757813 139.820313 201.097656 "/>
<path style=" stroke:none;fill-rule:nonzero;fill:rgb(0%,38.398743%,65.098572%);fill-opacity:1;" d="M 151.003906 207.179688 C 149.859375 207.582031 147.882813 208.199219 147.328125 208.601563 C 147.203125 208.660156 147.019531 209.25 147.019531 209.589844 C 147.019531 210.796875 147.851563 211.691406 149.179688 211.691406 C 149.582031 211.691406 150.261719 211.535156 150.757813 211.195313 C 150.972656 211.074219 151.066406 210.828125 151.097656 210.488281 C 151.15625 209.835938 151.15625 207.828125 151.15625 207.304688 C 151.15625 207.273438 151.066406 207.152344 151.003906 207.179688 M 150.726563 203.289063 C 150.199219 202.515625 149.304688 202.117188 148.378906 202.117188 C 147.699219 202.117188 147.296875 202.300781 147.144531 202.425781 C 146.804688 202.671875 146.246094 203.660156 145.84375 204.648438 C 145.753906 204.773438 144.917969 204.308594 144.949219 204.03125 C 145.011719 203.597656 145.476563 202.394531 145.660156 202.207031 C 146.988281 201.28125 148.933594 200.507813 149.703125 200.507813 C 151.066406 200.507813 152.085938 201.128906 152.765625 202.148438 C 153.289063 203.011719 153.476563 204.09375 153.476563 205.203125 C 153.476563 206.8125 153.351563 209.1875 153.351563 210.425781 C 153.351563 211.074219 153.597656 211.660156 154.523438 211.660156 C 155.019531 211.660156 155.234375 211.628906 155.605469 211.503906 C 155.636719 211.628906 155.574219 212.339844 155.480469 212.433594 C 154.742188 213.234375 153.660156 213.511719 152.949219 213.511719 C 152.085938 213.511719 151.589844 213.175781 151.371094 212.710938 C 151.25 212.523438 151.1875 212.183594 151.128906 211.9375 C 151.128906 211.90625 151.035156 211.875 151.003906 211.90625 C 149.429688 212.894531 148.128906 213.511719 147.328125 213.511719 C 146.742188 213.511719 146.121094 213.203125 145.628906 212.742188 C 145.011719 212.0625 144.578125 211.105469 144.578125 210.023438 C 144.578125 209.4375 144.980469 208.480469 145.136719 208.261719 C 146.152344 207.707031 149.796875 206.839844 150.972656 206.253906 C 151.035156 206.222656 151.15625 206.035156 151.15625 205.945313 C 151.21875 205.667969 151.1875 205.328125 151.1875 205.113281 C 151.1875 204.492188 151.097656 203.816406 150.726563 203.289063 "/>
<path style=" stroke:none;fill-rule:nonzero;fill:rgb(0%,38.398743%,65.098572%);fill-opacity:1;" d="M 156.378906 212.339844 C 156.964844 212.246094 157.367188 212.183594 157.738281 212.03125 C 158.078125 211.875 158.199219 211.597656 158.230469 211.164063 C 158.324219 210.175781 158.355469 208.046875 158.355469 203.011719 C 158.355469 200.820313 158.355469 196.277344 158.261719 195.351563 C 158.230469 195.011719 158.199219 194.484375 157.800781 194.394531 C 157.488281 194.300781 156.933594 194.207031 156.191406 194.117188 C 156.070313 194.023438 156.101563 193.4375 156.226563 193.34375 C 157.738281 193.21875 159.652344 192.695313 160.765625 192.199219 C 160.855469 192.230469 160.980469 192.417969 160.980469 192.480469 C 160.796875 193.035156 160.703125 193.652344 160.703125 195.164063 C 160.671875 196.742188 160.671875 200.230469 160.671875 202.886719 C 160.671875 207.734375 160.703125 209.835938 160.765625 210.671875 C 160.796875 211.503906 160.890625 211.875 161.445313 212.0625 C 161.816406 212.214844 162.0625 212.277344 162.742188 212.339844 C 162.804688 212.492188 162.742188 213.082031 162.617188 213.234375 C 162.0625 213.234375 161.074219 213.144531 159.4375 213.144531 C 158.230469 213.144531 156.78125 213.234375 156.378906 213.234375 C 156.316406 213.082031 156.253906 212.523438 156.378906 212.339844 "/>
<path style=" stroke:none;fill-rule:nonzero;fill:rgb(0%,38.398743%,65.098572%);fill-opacity:1;" d="M 166.757813 205.234375 C 166.757813 205.296875 166.820313 205.453125 166.910156 205.453125 C 167.898438 205.511719 171.546875 205.390625 172.164063 205.265625 C 172.226563 205.203125 172.316406 205.113281 172.316406 204.988281 C 172.164063 203.445313 171.144531 201.683594 169.476563 201.683594 C 167.992188 201.683594 166.910156 203.042969 166.757813 205.234375 M 174.972656 210.363281 C 175.003906 210.578125 174.878906 211.105469 174.820313 211.195313 C 173.460938 212.742188 171.328125 213.511719 169.90625 213.511719 C 168.300781 213.511719 167.066406 212.988281 166.140625 212.03125 C 164.871094 210.765625 164.378906 208.878906 164.378906 207.121094 C 164.378906 204.402344 165.519531 202.578125 167.097656 201.527344 C 168.054688 200.910156 169.445313 200.507813 170.433594 200.507813 C 173.429688 200.507813 174.511719 203.164063 174.757813 204.894531 C 174.789063 205.019531 174.910156 205.144531 175.21875 205.234375 C 175.253906 205.359375 175.066406 205.882813 174.972656 205.945313 C 173.675781 206.316406 169.476563 206.5625 166.878906 206.625 C 166.757813 206.65625 166.695313 206.8125 166.695313 206.964844 C 166.757813 208.015625 167.21875 209.3125 167.960938 210.117188 C 168.890625 211.074219 169.9375 211.476563 171.328125 211.476563 C 172.5625 211.476563 173.707031 211.105469 174.851563 210.175781 C 174.878906 210.207031 174.941406 210.269531 174.972656 210.363281 "/>
<path style=" stroke:none;fill-rule:nonzero;fill:rgb(0%,38.398743%,65.098572%);fill-opacity:1;" d="M 185.601563 205.234375 C 185.601563 205.296875 185.660156 205.453125 185.753906 205.453125 C 186.742188 205.511719 190.386719 205.390625 191.003906 205.265625 C 191.066406 205.203125 191.160156 205.113281 191.160156 204.988281 C 191.003906 203.445313 189.984375 201.683594 188.316406 201.683594 C 186.835938 201.683594 185.753906 203.042969 185.601563 205.234375 M 193.816406 210.363281 C 193.847656 210.578125 193.722656 211.105469 193.660156 211.195313 C 192.300781 212.742188 190.171875 213.511719 188.75 213.511719 C 187.144531 213.511719 185.910156 212.988281 184.980469 212.03125 C 183.714844 210.765625 183.222656 208.878906 183.222656 207.121094 C 183.222656 204.402344 184.363281 202.578125 185.9375 201.527344 C 186.898438 200.910156 188.285156 200.507813 189.277344 200.507813 C 192.273438 200.507813 193.351563 203.164063 193.601563 204.894531 C 193.628906 205.019531 193.753906 205.144531 194.0625 205.234375 C 194.09375 205.359375 193.910156 205.882813 193.816406 205.945313 C 192.519531 206.316406 188.316406 206.5625 185.722656 206.625 C 185.601563 206.65625 185.535156 206.8125 185.535156 206.964844 C 185.601563 208.015625 186.0625 209.3125 186.804688 210.117188 C 187.730469 211.074219 188.78125 211.476563 190.171875 211.476563 C 191.40625 211.476563 192.550781 211.105469 193.691406 210.175781 C 193.722656 210.207031 193.785156 210.269531 193.816406 210.363281 "/>
<path style=" stroke:none;fill-rule:nonzero;fill:rgb(0%,38.398743%,65.098572%);fill-opacity:1;" d="M 210.742188 201.1875 C 210.773438 201.28125 210.773438 201.558594 210.742188 201.683594 C 210.683594 202.054688 210.09375 203.257813 209.785156 203.628906 C 209.753906 203.660156 209.570313 203.753906 209.539063 203.753906 C 208.953125 203.257813 208.242188 202.792969 207.53125 202.792969 C 206.914063 202.792969 206.296875 203.445313 205.894531 204.09375 C 205.800781 204.277344 205.648438 204.742188 205.648438 205.144531 C 205.648438 207.242188 205.679688 210.425781 205.710938 211.042969 C 205.738281 211.566406 205.894531 211.875 206.359375 212.03125 C 206.914063 212.183594 207.625 212.277344 208.304688 212.339844 C 208.367188 212.492188 208.335938 213.113281 208.179688 213.234375 C 207.808594 213.234375 205.800781 213.144531 204.566406 213.144531 C 203.609375 213.144531 202.03125 213.203125 201.476563 213.234375 C 201.386719 213.113281 201.351563 212.464844 201.476563 212.339844 C 201.847656 212.308594 202.34375 212.214844 202.683594 212.09375 C 202.992188 211.96875 203.175781 211.785156 203.238281 211.226563 C 203.300781 210.734375 203.332031 208.167969 203.332031 206.039063 C 203.332031 204.894531 203.332031 203.96875 203.300781 203.597656 C 203.238281 203.164063 202.992188 202.792969 201.601563 202.300781 C 201.601563 202.148438 201.664063 201.683594 201.753906 201.621094 C 202.867188 201.496094 204.691406 200.972656 205.523438 200.476563 C 205.585938 200.476563 205.679688 200.539063 205.679688 200.601563 C 205.648438 201.035156 205.617188 202.394531 205.617188 202.980469 C 205.617188 203.074219 205.710938 203.074219 205.769531 203.042969 C 206.359375 202.300781 207.007813 201.589844 207.71875 201.097656 C 208.210938 200.726563 208.703125 200.507813 209.292969 200.507813 C 209.878906 200.507813 210.496094 200.757813 210.742188 201.1875 "/>
<path style=" stroke:none;fill-rule:nonzero;fill:rgb(0%,38.398743%,65.098572%);fill-opacity:1;" d="M 214.050781 205.234375 C 214.050781 205.296875 214.109375 205.453125 214.203125 205.453125 C 215.191406 205.511719 218.835938 205.390625 219.453125 205.265625 C 219.515625 205.203125 219.609375 205.113281 219.609375 204.988281 C 219.453125 203.445313 218.4375 201.683594 216.769531 201.683594 C 215.285156 201.683594 214.203125 203.042969 214.050781 205.234375 M 222.265625 210.363281 C 222.296875 210.578125 222.171875 211.105469 222.113281 211.195313 C 220.753906 212.742188 218.621094 213.511719 217.199219 213.511719 C 215.59375 213.511719 214.359375 212.988281 213.433594 212.03125 C 212.164063 210.765625 211.671875 208.878906 211.671875 207.121094 C 211.671875 204.402344 212.8125 202.578125 214.390625 201.527344 C 215.347656 200.910156 216.738281 200.507813 217.726563 200.507813 C 220.722656 200.507813 221.800781 203.164063 222.050781 204.894531 C 222.078125 205.019531 222.203125 205.144531 222.511719 205.234375 C 222.542969 205.359375 222.359375 205.882813 222.265625 205.945313 C 220.96875 206.316406 216.769531 206.5625 214.171875 206.625 C 214.050781 206.65625 213.988281 206.8125 213.988281 206.964844 C 214.050781 208.015625 214.511719 209.3125 215.253906 210.117188 C 216.179688 211.074219 217.230469 211.476563 218.621094 211.476563 C 219.855469 211.476563 220.996094 211.105469 222.144531 210.175781 C 222.171875 210.207031 222.234375 210.269531 222.265625 210.363281 "/>
<path style=" stroke:none;fill-rule:nonzero;fill:rgb(0%,38.398743%,65.098572%);fill-opacity:1;" d="M 232.058594 204.09375 C 231.964844 204.214844 231.347656 204.246094 231.222656 204.152344 C 231.039063 202.824219 230.789063 202.175781 230.175781 201.808594 C 229.773438 201.558594 229.277344 201.4375 228.660156 201.4375 C 227.609375 201.4375 226.746094 202.113281 226.746094 203.226563 C 226.746094 204.277344 227.269531 204.894531 229.617188 206.007813 C 232.183594 207.179688 232.828125 208.230469 232.828125 209.714844 C 232.828125 211.9375 230.761719 213.511719 227.980469 213.511719 C 226.839844 213.511719 225.449219 213.234375 224.738281 212.925781 C 224.523438 212.214844 224.242188 210.238281 224.214844 209.527344 C 224.304688 209.40625 224.953125 209.1875 225.109375 209.25 C 225.539063 210.855469 226.128906 211.660156 226.929688 212.125 C 227.394531 212.371094 228.011719 212.492188 228.476563 212.492188 C 229.742188 212.492188 230.546875 211.816406 230.546875 210.765625 C 230.546875 209.652344 229.957031 209.066406 228.042969 208.140625 C 225.539063 206.902344 224.644531 205.792969 224.644531 204.152344 C 224.644531 202.238281 226.160156 200.507813 229.1875 200.507813 C 229.894531 200.507813 230.667969 200.601563 231.191406 200.695313 C 231.6875 200.789063 232.183594 200.847656 232.429688 200.878906 C 232.210938 201.808594 232.152344 202.824219 232.058594 204.09375 "/>
<path style=" stroke:none;fill-rule:nonzero;fill:rgb(0%,38.398743%,65.098572%);fill-opacity:1;" d="M 238.945313 203.351563 C 238.792969 203.445313 238.636719 203.753906 238.636719 203.996094 C 238.578125 204.773438 238.605469 208.816406 238.605469 209.867188 C 238.636719 210.546875 238.886719 211.011719 239.226563 211.289063 C 239.84375 211.785156 240.644531 212.03125 241.664063 212.03125 C 242.3125 212.03125 243.117188 211.816406 243.828125 211.195313 C 244.753906 210.425781 245.246094 208.972656 245.246094 207.210938 C 245.246094 205.824219 244.910156 204.496094 244.199219 203.597656 C 243.488281 202.734375 242.59375 202.363281 241.570313 202.363281 C 240.707031 202.363281 239.71875 202.734375 238.945313 203.351563 M 234.375 201.589844 C 235.457031 201.4375 237.402344 200.785156 238.515625 200.167969 C 238.578125 200.109375 238.761719 200.324219 238.761719 200.386719 C 238.699219 200.785156 238.667969 201.777344 238.667969 202.332031 C 238.667969 202.394531 238.792969 202.425781 238.824219 202.394531 C 240.894531 200.972656 242.222656 200.507813 243.242188 200.507813 C 244.476563 200.507813 245.589844 201.128906 246.300781 201.929688 C 247.347656 203.105469 247.75 204.679688 247.75 205.976563 C 247.75 208.570313 246.730469 210.300781 245.0625 211.660156 C 243.550781 212.863281 241.449219 213.511719 239.996094 213.511719 C 239.6875 213.511719 239.195313 213.421875 238.761719 213.328125 C 238.730469 213.296875 238.605469 213.390625 238.605469 213.421875 C 238.605469 215.519531 238.636719 217.160156 238.699219 218.238281 C 238.730469 218.917969 238.914063 219.257813 239.625 219.382813 C 240.027344 219.476563 240.832031 219.566406 241.480469 219.628906 C 241.570313 219.785156 241.511719 220.433594 241.355469 220.523438 L 240.121094 220.523438 C 237.0625 220.523438 235.238281 220.804688 234.035156 220.894531 C 233.941406 220.742188 233.910156 220.121094 234.035156 219.96875 L 235.363281 219.660156 C 235.980469 219.445313 236.105469 219.136719 236.199219 218.148438 C 236.230469 217.21875 236.257813 215.335938 236.289063 210.332031 C 236.320313 206.253906 236.289063 204.925781 236.230469 203.84375 C 236.199219 203.257813 236.074219 202.980469 235.765625 202.796875 C 235.425781 202.609375 234.929688 202.488281 234.3125 202.394531 C 234.21875 202.238281 234.253906 201.714844 234.375 201.589844 "/>
<path style=" stroke:none;fill-rule:nonzero;fill:rgb(0%,38.398743%,65.098572%);fill-opacity:1;" d="M 254.515625 202.148438 C 253.710938 202.667969 252.941406 203.785156 252.941406 206.132813 C 252.941406 209.777344 254.761719 212.246094 257.234375 212.246094 C 257.882813 212.246094 258.59375 212.09375 259.117188 211.597656 C 259.953125 210.828125 260.289063 209.589844 260.289063 207.707031 C 260.289063 204.125 258.621094 201.714844 255.996094 201.714844 C 255.503906 201.714844 254.914063 201.867188 254.515625 202.148438 M 262.914063 206.71875 C 262.914063 209.097656 261.960938 211.164063 260.042969 212.371094 C 259.210938 212.925781 257.757813 213.511719 256.460938 213.511719 C 251.953125 213.511719 250.316406 210.085938 250.316406 206.902344 C 250.316406 204.464844 251.425781 202.824219 253 201.746094 C 254.113281 201.035156 255.597656 200.507813 257.046875 200.507813 C 260.753906 200.507813 262.914063 203.257813 262.914063 206.71875 "/>
<path style=" stroke:none;fill-rule:nonzero;fill:rgb(0%,38.398743%,65.098572%);fill-opacity:1;" d="M 266.070313 212.125 C 266.5 212 266.6875 211.566406 266.71875 211.042969 C 266.777344 210.085938 266.777344 207.921875 266.777344 205.976563 C 266.777344 204.773438 266.746094 203.96875 266.71875 203.503906 C 266.625 203.074219 266.253906 202.765625 265.109375 202.332031 C 265.050781 202.148438 265.140625 201.714844 265.265625 201.621094 C 266.5 201.496094 268.292969 200.910156 269.066406 200.476563 C 269.09375 200.507813 269.1875 200.601563 269.1875 200.695313 C 269.15625 201.035156 269.125 201.929688 269.125 202.457031 C 269.125 202.515625 269.21875 202.546875 269.28125 202.515625 C 270.886719 201.1875 272.402344 200.507813 273.480469 200.507813 C 274.808594 200.507813 275.765625 201.097656 276.445313 202.117188 C 277.035156 203.042969 277.25 204.277344 277.25 205.761719 C 277.25 207.488281 277.25 210.269531 277.3125 211.351563 C 277.3125 211.597656 277.402344 211.84375 277.621094 211.9375 C 278.113281 212.183594 278.546875 212.246094 279.164063 212.339844 C 279.257813 212.492188 279.226563 213.082031 279.074219 213.234375 C 278.640625 213.234375 277.714844 213.144531 276.105469 213.144531 C 274.6875 213.144531 273.789063 213.203125 273.050781 213.234375 C 272.957031 213.113281 272.925781 212.464844 273.050781 212.339844 C 273.636719 212.277344 274.132813 212.183594 274.316406 212.125 C 274.75 211.96875 274.839844 211.660156 274.871094 210.855469 C 274.902344 209.128906 274.933594 206.007813 274.777344 204.863281 C 274.71875 204.371094 274.5 203.535156 273.914063 203.042969 C 273.480469 202.640625 272.894531 202.332031 272 202.332031 C 271.101563 202.332031 270.144531 202.703125 269.433594 203.320313 C 269.25 203.503906 269.125 203.785156 269.125 204.433594 C 269.125 206.625 269.125 209.621094 269.1875 211.042969 C 269.21875 211.753906 269.34375 211.96875 269.773438 212.09375 C 270.113281 212.214844 270.578125 212.277344 271.074219 212.339844 C 271.132813 212.464844 271.101563 213.082031 270.980469 213.234375 C 270.515625 213.234375 269.652344 213.144531 267.953125 213.144531 C 266.4375 213.144531 265.328125 213.234375 264.957031 213.234375 C 264.832031 213.113281 264.832031 212.464844 264.957031 212.339844 C 265.390625 212.277344 265.699219 212.214844 266.070313 212.125 "/>
<path style=" stroke:none;fill-rule:nonzero;fill:rgb(0%,38.398743%,65.098572%);fill-opacity:1;" d="M 288.402344 204.09375 C 288.308594 204.214844 287.691406 204.246094 287.566406 204.152344 C 287.382813 202.824219 287.136719 202.175781 286.519531 201.808594 C 286.117188 201.558594 285.621094 201.4375 285.003906 201.4375 C 283.953125 201.4375 283.089844 202.113281 283.089844 203.226563 C 283.089844 204.277344 283.613281 204.894531 285.960938 206.007813 C 288.527344 207.179688 289.175781 208.230469 289.175781 209.714844 C 289.175781 211.9375 287.105469 213.511719 284.324219 213.511719 C 283.183594 213.511719 281.792969 213.234375 281.082031 212.925781 C 280.867188 212.214844 280.585938 210.238281 280.554688 209.527344 C 280.648438 209.40625 281.296875 209.1875 281.453125 209.25 C 281.882813 210.855469 282.472656 211.660156 283.273438 212.125 C 283.738281 212.371094 284.355469 212.492188 284.820313 212.492188 C 286.085938 212.492188 286.886719 211.816406 286.886719 210.765625 C 286.886719 209.652344 286.300781 209.066406 284.386719 208.140625 C 281.882813 206.902344 280.988281 205.792969 280.988281 204.152344 C 280.988281 202.238281 282.503906 200.507813 285.53125 200.507813 C 286.238281 200.507813 287.011719 200.601563 287.535156 200.695313 C 288.03125 200.789063 288.527344 200.847656 288.773438 200.878906 C 288.554688 201.808594 288.496094 202.824219 288.402344 204.09375 "/>
<path style=" stroke:none;fill-rule:nonzero;fill:rgb(0%,38.398743%,65.098572%);fill-opacity:1;" d="M 297.730469 207.179688 C 296.585938 207.582031 294.609375 208.199219 294.054688 208.601563 C 293.929688 208.660156 293.746094 209.25 293.746094 209.589844 C 293.746094 210.796875 294.582031 211.691406 295.910156 211.691406 C 296.308594 211.691406 296.988281 211.535156 297.484375 211.195313 C 297.699219 211.074219 297.792969 210.828125 297.824219 210.488281 C 297.886719 209.835938 297.886719 207.828125 297.886719 207.304688 C 297.886719 207.273438 297.792969 207.152344 297.730469 207.179688 M 297.453125 203.289063 C 296.929688 202.515625 296.03125 202.117188 295.105469 202.117188 C 294.425781 202.117188 294.023438 202.300781 293.871094 202.425781 C 293.53125 202.671875 292.972656 203.660156 292.574219 204.648438 C 292.480469 204.773438 291.644531 204.308594 291.675781 204.03125 C 291.738281 203.597656 292.203125 202.394531 292.386719 202.207031 C 293.714844 201.28125 295.660156 200.507813 296.433594 200.507813 C 297.792969 200.507813 298.8125 201.128906 299.492188 202.148438 C 300.015625 203.011719 300.203125 204.09375 300.203125 205.203125 C 300.203125 206.8125 300.078125 209.1875 300.078125 210.425781 C 300.078125 211.074219 300.324219 211.660156 301.253906 211.660156 C 301.746094 211.660156 301.960938 211.628906 302.332031 211.503906 C 302.363281 211.628906 302.300781 212.339844 302.210938 212.433594 C 301.46875 213.234375 300.386719 213.511719 299.675781 213.511719 C 298.8125 213.511719 298.316406 213.175781 298.101563 212.710938 C 297.976563 212.523438 297.917969 212.183594 297.855469 211.9375 C 297.855469 211.90625 297.761719 211.875 297.730469 211.90625 C 296.15625 212.894531 294.859375 213.511719 294.054688 213.511719 C 293.46875 213.511719 292.851563 213.203125 292.355469 212.742188 C 291.738281 212.0625 291.304688 211.105469 291.304688 210.023438 C 291.304688 209.4375 291.707031 208.480469 291.863281 208.261719 C 292.882813 207.707031 296.527344 206.839844 297.699219 206.253906 C 297.761719 206.222656 297.886719 206.035156 297.886719 205.945313 C 297.949219 205.667969 297.917969 205.328125 297.917969 205.113281 C 297.917969 204.492188 297.824219 203.816406 297.453125 203.289063 "/>
<path style=" stroke:none;fill-rule:nonzero;fill:rgb(0%,38.398743%,65.098572%);fill-opacity:1;" d="M 307.429688 202.949219 C 307.308594 203.042969 307.183594 203.164063 307.121094 203.414063 C 307.058594 204.09375 307.058594 208.324219 307.152344 209.589844 C 307.183594 210.765625 307.398438 211.011719 307.679688 211.289063 C 308.417969 211.90625 309.375 212.09375 310.210938 212.09375 C 311.167969 212.09375 311.941406 211.816406 312.617188 211.011719 C 313.300781 210.238281 313.730469 208.789063 313.730469 207.367188 C 313.730469 205.636719 313.300781 204.523438 312.742188 203.71875 C 311.878906 202.609375 310.859375 202.269531 309.746094 202.269531 C 308.945313 202.269531 307.894531 202.640625 307.429688 202.949219 M 314.90625 202.117188 C 315.953125 203.289063 316.265625 204.957031 316.265625 206.039063 C 316.265625 208.726563 315.152344 210.640625 313.515625 211.816406 C 312.21875 212.804688 310.179688 213.511719 308.945313 213.511719 C 307.925781 213.511719 307.027344 213.328125 306.195313 213.082031 C 305.855469 212.988281 305.453125 212.925781 304.773438 213.113281 C 304.714844 213.113281 304.558594 212.988281 304.558594 212.925781 C 304.652344 211.351563 304.679688 209.808594 304.679688 205.421875 C 304.679688 201.652344 304.652344 196.371094 304.527344 195.074219 C 304.496094 194.546875 304.371094 194.363281 303.878906 194.207031 C 303.539063 194.085938 302.949219 193.992188 302.335938 193.929688 C 302.210938 193.777344 302.242188 193.25 302.394531 193.128906 C 303.972656 193.035156 306.195313 192.570313 307.242188 192.199219 C 307.339844 192.199219 307.460938 192.507813 307.429688 192.601563 C 307.183594 192.972656 307.058594 193.46875 307.058594 198.65625 L 307.058594 202.023438 C 307.058594 202.085938 307.183594 202.117188 307.242188 202.085938 C 308.699219 201.21875 310.425781 200.507813 311.414063 200.507813 C 312.960938 200.507813 314.132813 201.1875 314.90625 202.117188 "/>
<path style=" stroke:none;fill-rule:nonzero;fill:rgb(0%,38.398743%,65.098572%);fill-opacity:1;" d="M 322.105469 197.605469 C 321.949219 197.699219 320.898438 197.792969 320.714844 197.667969 C 320.25 197.453125 320.003906 197.019531 319.910156 196.402344 C 319.878906 196.214844 319.910156 195.660156 320.066406 195.503906 C 320.34375 195.257813 320.992188 194.949219 321.546875 194.949219 C 322.039063 194.949219 322.382813 195.105469 322.445313 195.195313 C 322.628906 195.414063 322.753906 195.8125 322.753906 196.09375 C 322.753906 196.679688 322.503906 197.296875 322.105469 197.605469 M 324.480469 213.234375 C 323.894531 213.234375 322.90625 213.144531 321.332031 213.144531 C 320.035156 213.144531 318.828125 213.234375 318.304688 213.234375 C 318.179688 213.144531 318.179688 212.464844 318.304688 212.339844 C 318.828125 212.277344 319.261719 212.183594 319.632813 212.0625 C 320.035156 211.90625 320.125 211.660156 320.1875 210.949219 C 320.25 210.175781 320.25 208.140625 320.25 206.441406 C 320.25 205.234375 320.21875 204.125 320.21875 203.503906 C 320.21875 203.320313 320.1875 203.074219 320.003906 202.855469 C 319.664063 202.515625 319.136719 202.332031 318.519531 202.117188 C 318.429688 201.992188 318.519531 201.46875 318.644531 201.375 C 319.570313 201.34375 321.457031 200.972656 322.660156 200.476563 C 322.660156 201.867188 322.628906 204 322.628906 205.882813 C 322.628906 207.582031 322.628906 209.652344 322.660156 211.042969 C 322.660156 211.597656 322.84375 211.9375 323.308594 212.09375 C 323.710938 212.183594 323.894531 212.246094 324.605469 212.339844 C 324.699219 212.492188 324.605469 213.144531 324.480469 213.234375 "/>
<path style=" stroke:none;fill-rule:nonzero;fill:rgb(0%,38.398743%,65.098572%);fill-opacity:1;" d="M 325.839844 212.339844 C 326.429688 212.246094 326.828125 212.183594 327.199219 212.03125 C 327.539063 211.875 327.664063 211.597656 327.695313 211.164063 C 327.789063 210.175781 327.816406 208.046875 327.816406 203.011719 C 327.816406 200.820313 327.816406 196.277344 327.726563 195.351563 C 327.695313 195.011719 327.664063 194.484375 327.261719 194.394531 C 326.953125 194.300781 326.398438 194.207031 325.65625 194.117188 C 325.53125 194.023438 325.5625 193.4375 325.6875 193.34375 C 327.199219 193.21875 329.113281 192.695313 330.226563 192.199219 C 330.320313 192.230469 330.445313 192.417969 330.445313 192.480469 C 330.257813 193.035156 330.164063 193.652344 330.164063 195.164063 C 330.136719 196.742188 330.136719 200.230469 330.136719 202.886719 C 330.136719 207.734375 330.164063 209.835938 330.226563 210.671875 C 330.257813 211.503906 330.351563 211.875 330.90625 212.0625 C 331.277344 212.214844 331.523438 212.277344 332.203125 212.339844 C 332.265625 212.492188 332.203125 213.082031 332.078125 213.234375 C 331.523438 213.234375 330.535156 213.144531 328.898438 213.144531 C 327.695313 213.144531 326.242188 213.234375 325.839844 213.234375 C 325.777344 213.082031 325.71875 212.523438 325.839844 212.339844 "/>
<path style=" stroke:none;fill-rule:nonzero;fill:rgb(0%,38.398743%,65.098572%);fill-opacity:1;" d="M 336.21875 205.234375 C 336.21875 205.296875 336.28125 205.453125 336.371094 205.453125 C 337.363281 205.511719 341.007813 205.390625 341.625 205.265625 C 341.6875 205.203125 341.78125 205.113281 341.78125 204.988281 C 341.625 203.445313 340.605469 201.683594 338.9375 201.683594 C 337.453125 201.683594 336.371094 203.042969 336.21875 205.234375 M 344.4375 210.363281 C 344.46875 210.578125 344.34375 211.105469 344.28125 211.195313 C 342.921875 212.742188 340.789063 213.511719 339.371094 213.511719 C 337.765625 213.511719 336.527344 212.988281 335.601563 212.03125 C 334.335938 210.765625 333.839844 208.878906 333.839844 207.121094 C 333.839844 204.402344 334.984375 202.578125 336.558594 201.527344 C 337.515625 200.910156 338.90625 200.507813 339.894531 200.507813 C 342.890625 200.507813 343.972656 203.164063 344.21875 204.894531 C 344.25 205.019531 344.375 205.144531 344.683594 205.234375 C 344.714844 205.359375 344.527344 205.882813 344.4375 205.945313 C 343.140625 206.316406 338.9375 206.5625 336.34375 206.625 C 336.21875 206.65625 336.15625 206.8125 336.15625 206.964844 C 336.21875 208.015625 336.683594 209.3125 337.425781 210.117188 C 338.351563 211.074219 339.402344 211.476563 340.789063 211.476563 C 342.027344 211.476563 343.171875 211.105469 344.3125 210.175781 C 344.34375 210.207031 344.40625 210.269531 344.4375 210.363281 "/>
</g>
</svg>
